<svg width="159" height="60" viewBox="0 0 159 60" fill="none" xmlns="http://www.w3.org/2000/svg">
<path d="M32.4328 11.2419L17.4914 33.4923H31.2475V41.4299H0L14.9593 19.1795H2.47825V11.2419H32.4328Z" fill="black"/>
<path d="M61.2587 27.7815H39.3674C39.3674 29.9006 40.0544 31.472 41.4327 32.4866C42.8065 33.5057 44.297 34.0131 45.9043 34.0131C47.5924 34.0131 48.9258 33.7931 49.909 33.3486C50.8877 32.8952 52.0101 31.9972 53.2672 30.6549L60.7917 34.4261C57.6535 39.6834 52.4321 42.3098 45.1321 42.3098C40.5796 42.3098 36.6782 40.7564 33.4232 37.6406C30.1638 34.5159 28.5386 30.7581 28.5386 26.3628C28.5386 21.972 30.1638 18.2052 33.4232 15.067C36.6782 11.9333 40.5796 10.3619 45.1321 10.3619C49.918 10.3619 53.8149 11.7447 56.8229 14.5103C59.8265 17.2759 61.3305 21.2267 61.3305 26.3628C61.3305 27.0722 61.3036 27.5436 61.2587 27.7815ZM39.6727 22.0169H51.1481C50.9057 20.45 50.2861 19.2468 49.2804 18.4073C48.2838 17.5587 47.0042 17.1322 45.4374 17.1322C43.7134 17.1322 42.3351 17.5812 41.3069 18.4791C40.2878 19.377 39.7446 20.5578 39.6727 22.0169Z" fill="black"/>
<path d="M60.6799 41.4299V11.2419H71.0958V14.4205H71.2035C73.9062 11.7178 76.793 10.3619 79.8594 10.3619C81.341 10.3619 82.8226 10.5595 84.2951 10.9546C85.7677 11.3407 87.1775 11.9423 88.5333 12.7684C89.8847 13.5944 90.9801 14.7617 91.8197 16.2702C92.6682 17.7787 93.0947 19.5342 93.0947 21.532V41.4299H82.6789V24.3694C82.6789 22.8026 82.1761 21.4333 81.1704 20.257C80.1737 19.0717 78.8762 18.4791 77.2734 18.4791C75.7021 18.4791 74.2789 19.0897 72.9993 20.3109C71.7288 21.523 71.0958 22.8744 71.0958 24.3694V41.4299H60.6799Z" fill="black"/>
<path d="M95.8033 11.2419V0H106.219V11.2419H112.576V19.1795H106.219V28.7693C106.219 31.5618 107 32.9535 108.572 32.9535C108.967 32.9535 109.38 32.8772 109.811 32.7201C110.242 32.5674 110.574 32.4103 110.816 32.2532L111.158 32.0197L113.744 40.4242C111.517 41.6813 108.967 42.3098 106.093 42.3098C104.14 42.3098 102.457 41.9686 101.047 41.2862C99.6329 40.5948 98.5599 39.67 97.8326 38.5206C97.1008 37.3623 96.58 36.1456 96.2702 34.8751C95.956 33.5956 95.8033 32.2307 95.8033 30.7806V19.1795H91.4395V11.2419H95.8033Z" fill="black"/>
<path d="M114.592 37.8382C111.238 34.8571 109.563 31.032 109.563 26.3628C109.563 21.6936 111.31 17.864 114.807 14.8695C118.3 11.8659 122.619 10.3619 127.755 10.3619C132.819 10.3619 137.084 11.8704 140.559 14.8874C144.03 17.9044 145.767 21.7296 145.767 26.3628C145.767 30.9961 144.066 34.8167 140.667 37.8202C137.277 40.8148 132.972 42.3098 127.755 42.3098C122.341 42.3098 117.954 40.8193 114.592 37.8382ZM122.655 21.2447C121.299 22.5736 120.626 24.2796 120.626 26.3628C120.626 28.446 121.272 30.1475 122.565 31.463C123.867 32.7694 125.582 33.4204 127.701 33.4204C129.735 33.4204 131.41 32.756 132.729 31.4271C134.045 30.0892 134.705 28.4011 134.705 26.3628C134.705 24.2796 134.027 22.5736 132.676 21.2447C131.32 19.9158 129.663 19.2513 127.701 19.2513C125.699 19.2513 124.02 19.9158 122.655 21.2447Z" fill="black"/>
<path d="M151.816 28.8411C153.693 28.8411 155.291 29.501 156.611 30.8165C157.926 32.123 158.586 33.7212 158.586 35.6114C158.586 37.4566 157.926 39.0369 156.611 40.3524C155.291 41.6543 153.693 42.3098 151.816 42.3098C149.971 42.3098 148.391 41.6543 147.075 40.3524C145.769 39.0369 145.118 37.4566 145.118 35.6114C145.118 33.7212 145.769 32.123 147.075 30.8165C148.391 29.501 149.971 28.8411 151.816 28.8411Z" fill="black"/>
<path d="M60.8522 51.0207C61.3909 51.0207 61.8758 51.1599 62.3068 51.4337C62.7468 51.7121 63.0969 52.0937 63.3484 52.583C63.5998 53.0769 63.7255 53.6336 63.7255 54.2532C63.7255 54.8638 63.5998 55.4205 63.3484 55.9233C63.0969 56.4172 62.7468 56.8033 62.3068 57.0906C61.8758 57.3689 61.3999 57.5036 60.8881 57.5036C60.466 57.5036 60.0799 57.4138 59.7208 57.2343C59.3706 57.0457 59.0922 56.8167 58.8767 56.5518V56.893C58.8767 57.0502 58.8229 57.1894 58.7151 57.3061C58.6074 57.4138 58.4682 57.4677 58.3021 57.4677C58.1449 57.4677 58.0147 57.4138 57.907 57.3061C57.7992 57.1983 57.7454 57.0637 57.7454 56.893V49.171C57.7454 49.0049 57.7903 48.8747 57.889 48.7759C57.9968 48.6681 58.1315 48.6143 58.3021 48.6143C58.4682 48.6143 58.6074 48.6681 58.7151 48.7759C58.8229 48.8836 58.8767 49.0183 58.8767 49.171V52.0623C59.0563 51.7884 59.3257 51.5504 59.6849 51.3439C60.053 51.1284 60.4436 51.0207 60.8522 51.0207ZM60.7264 56.462C61.0946 56.462 61.4268 56.3678 61.7142 56.1747C62.0015 55.9727 62.2215 55.7033 62.3786 55.3666C62.5447 55.0344 62.63 54.6617 62.63 54.2532C62.63 53.8356 62.5447 53.463 62.3786 53.1398C62.2215 52.8075 62.0015 52.5426 61.7142 52.3496C61.4268 52.161 61.0946 52.0623 60.7264 52.0623C60.3538 52.0623 60.0171 52.161 59.7208 52.3496C59.4334 52.5426 59.2045 52.8075 59.0384 53.1398C58.8812 53.463 58.8049 53.8356 58.8049 54.2532C58.8049 54.6752 58.8812 55.0523 59.0384 55.3845C59.2045 55.7078 59.4334 55.9727 59.7208 56.1747C60.0171 56.3678 60.3538 56.462 60.7264 56.462Z" fill="black"/>
<path d="M73.9595 56.8033C73.9595 56.9739 73.8966 57.1085 73.7799 57.2163C73.6722 57.324 73.5375 57.3779 73.3848 57.3779C73.2277 57.3779 73.0975 57.324 72.9897 57.2163C72.882 57.1085 72.8281 56.9739 72.8281 56.8033V49.171C72.8281 49.0183 72.882 48.8836 72.9897 48.7759C73.1065 48.6681 73.2457 48.6143 73.4028 48.6143C73.5554 48.6143 73.6901 48.6681 73.7979 48.7759C73.9056 48.8836 73.9595 49.0183 73.9595 49.171V56.8033Z" fill="black"/>
<path d="M89.3296 54.2711C89.3296 54.8951 89.1904 55.4518 88.9165 55.9412C88.6382 56.4216 88.2611 56.8032 87.7852 57.0905C87.3048 57.3689 86.7795 57.5036 86.2048 57.5036C85.6302 57.5036 85.1004 57.3689 84.6245 57.0905C84.1441 56.8032 83.767 56.4216 83.4931 55.9412C83.2148 55.4518 83.0801 54.8951 83.0801 54.2711C83.0801 53.6605 83.2148 53.1038 83.4931 52.601C83.767 52.0981 84.1441 51.712 84.6245 51.4337C85.1004 51.1598 85.6302 51.0206 86.2048 51.0206C86.7795 51.0206 87.3048 51.1598 87.7852 51.4337C88.2611 51.712 88.6382 52.0981 88.9165 52.601C89.1904 53.1038 89.3296 53.6605 89.3296 54.2711ZM88.2162 54.2711C88.2162 53.8401 88.1264 53.4585 87.9468 53.1218C87.7672 52.7895 87.5203 52.5291 87.2105 52.3495C86.9097 52.161 86.573 52.0622 86.2048 52.0622C85.8322 52.0622 85.491 52.161 85.1812 52.3495C84.8804 52.5291 84.6425 52.7895 84.4629 53.1218C84.2833 53.4585 84.1935 53.8401 84.1935 54.2711C84.1935 54.6931 84.2833 55.0702 84.4629 55.4025C84.6425 55.7257 84.8804 55.9861 85.1812 56.1747C85.491 56.3677 85.8322 56.462 86.2048 56.462C86.573 56.462 86.9097 56.3677 87.2105 56.1747C87.5203 55.9861 87.7672 55.7257 87.9468 55.4025C88.1264 55.0702 88.2162 54.6931 88.2162 54.2711Z" fill="black"/>
<path d="M103.546 51.0925C103.712 51.0925 103.851 51.1463 103.959 51.2541C104.066 51.3529 104.12 51.4875 104.12 51.6671V56.875C104.12 57.5215 103.981 58.0603 103.707 58.4913C103.429 58.9223 103.061 59.2366 102.594 59.4431C102.127 59.6451 101.597 59.7484 101.013 59.7484C100.699 59.7484 100.331 59.6945 99.9001 59.5868C99.478 59.479 99.2087 59.3623 99.0919 59.2455C98.8495 59.1109 98.7328 58.9492 98.7328 58.7607C98.7328 58.7113 98.7507 58.6529 98.7866 58.5811C98.8675 58.3746 99.0111 58.2758 99.2176 58.2758C99.3254 58.2758 99.4376 58.2982 99.5588 58.3476C100.178 58.599 100.672 58.7248 101.031 58.7248C101.664 58.7248 102.149 58.5676 102.486 58.2578C102.818 57.957 102.989 57.544 102.989 57.0187V56.3722C102.818 56.6865 102.54 56.9559 102.145 57.1803C101.759 57.3958 101.346 57.5036 100.906 57.5036C100.367 57.5036 99.8686 57.3689 99.4152 57.0905C98.9707 56.8032 98.616 56.4171 98.3556 55.9233C98.1042 55.4339 97.9785 54.8772 97.9785 54.2531C97.9785 53.6425 98.1042 53.0948 98.3556 52.601C98.616 52.0981 98.9707 51.712 99.4152 51.4337C99.8552 51.1598 100.349 51.0206 100.888 51.0206C101.319 51.0206 101.718 51.1239 102.091 51.3259C102.473 51.519 102.773 51.7569 102.989 52.0443V51.6671C102.989 51.501 103.034 51.3618 103.133 51.2541C103.24 51.1463 103.375 51.0925 103.546 51.0925ZM101.049 56.462C101.431 56.462 101.772 56.3677 102.073 56.1747C102.369 55.9861 102.603 55.7212 102.773 55.3845C102.953 55.0523 103.043 54.6752 103.043 54.2531C103.043 53.8356 102.953 53.463 102.773 53.1397C102.603 52.8075 102.369 52.5426 102.073 52.3495C101.772 52.161 101.431 52.0622 101.049 52.0622C100.663 52.0622 100.322 52.161 100.026 52.3495C99.725 52.5426 99.487 52.8075 99.3074 53.1397C99.1368 53.4764 99.056 53.8491 99.056 54.2531C99.056 54.6752 99.1368 55.0523 99.3074 55.3845C99.487 55.7212 99.725 55.9861 100.026 56.1747C100.322 56.3677 100.663 56.462 101.049 56.462Z" fill="black"/>
</svg>
